<svg width="20" height="20" viewBox="0 0 20 20" fill="none" xmlns="http://www.w3.org/2000/svg">
<path d="M10.0049 20.0026C4.48204 20.0026 0.00488281 15.5255 0.00488281 10.0026C0.00488281 4.47984 4.48204 0.00268555 10.0049 0.00268555C15.5277 0.00268555 20.0049 4.47984 20.0049 10.0026C20.0049 15.5255 15.5277 20.0026 10.0049 20.0026ZM6.50488 12.0026V14.0026H9.0049V16.0026H11.0049V14.0026H12.0049C13.3856 14.0026 14.5049 12.8834 14.5049 11.5026C14.5049 10.1219 13.3856 9.00264 12.0049 9.00264H8.0049C7.72874 9.00264 7.50488 8.77884 7.50488 8.50264C7.50488 8.22654 7.72874 8.00264 8.0049 8.00264H13.5049V6.00269H11.0049V4.00269H9.0049V6.00269H8.0049C6.62417 6.00269 5.50488 7.12197 5.50488 8.50264C5.50488 9.88344 6.62417 11.0026 8.0049 11.0026H12.0049C12.281 11.0026 12.5049 11.2265 12.5049 11.5026C12.5049 11.7788 12.281 12.0026 12.0049 12.0026H6.50488Z" fill="#5B5B5C"/>
</svg>
