<svg width="121" height="20" viewBox="0 0 121 20" fill="none" xmlns="http://www.w3.org/2000/svg">
<g clip-path="url(#clip0_4105_3237)">
<path d="M91.8797 0.00244713V15.656C91.8797 16.6734 92.3821 17.1959 93.4058 17.2478C93.4186 17.2489 98.564 17.2489 98.564 17.2489V19.005C98.564 19.2011 98.458 19.3389 98.2397 19.3389H89.8894C87.3098 19.3389 86.9282 17.9187 86.9282 16.6289V1.06651C86.9282 0.33205 87.208 -0.0155697 88.076 0.00350571L91.8797 0.00244713Z" fill="black"/>
<path d="M82.2565 0.00244713L82.2576 18.3193C82.2576 19.1343 81.9121 19.3389 81.2189 19.3389H77.3008V1.01352C77.3008 0.409418 77.5318 0.00350571 78.4104 0.00350571L82.2565 0.00244713Z" fill="black"/>
<path d="M0.333496 2.66746C0.333496 1.19325 0.336676 -0.000110626 2.75836 -0.000110626H13.4032V1.86093C13.4032 1.99341 13.3407 2.11317 13.1552 2.11317L6.77614 2.11105C5.91875 2.11105 5.4874 2.52226 5.4874 3.38707V8.29722H12.993L12.9941 10.2473C12.9941 10.42 12.886 10.5112 12.7164 10.5112H5.4874V18.3019C5.4715 19.0533 5.09633 19.3522 4.27179 19.3374H0.333496V2.66746Z" fill="black"/>
<path d="M21.091 0.000530243V14.7394C21.091 16.0049 21.2702 16.8919 22.1583 17.4049C23.3485 18.0938 25.3642 18.1044 26.5777 17.424C27.4076 16.9608 27.7245 16.2168 27.7245 14.7437V0.982983C27.7245 0.364048 27.9608 0.000530243 28.8256 0.000530243H32.6781L32.6791 14.3039C32.6791 17.6264 30.587 18.9893 28.7376 19.4949C26.2767 20.1657 22.5388 20.1763 20.2167 19.479C17.4421 18.6438 16.1459 17.0011 16.1427 14.3049L16.1406 0.993582C16.1406 0.35133 16.3717 0.000530243 17.1104 0.000530243H21.091Z" fill="black"/>
<path d="M114.785 0.00350761C113.807 0.00350761 113.25 0.459232 113.029 1.33146L109.874 14.6651L109.789 14.6629L106.53 0.00350761H102.074C101.215 0.00350761 100.944 0.445454 100.944 1.12798V19.3389H102.827C103.13 19.3389 103.255 19.1884 103.255 18.88V3.61114H103.553L107.581 19.3389H110.219C111.213 19.3389 111.583 18.9308 111.828 17.9484L115.444 3.61114H115.736L115.735 19.3389L119.255 19.3336C120.119 19.3336 120.513 19.0018 120.513 18.1529V0.00244904L114.785 0.00350761Z" fill="black"/>
<path d="M56.2192 10.5106H51.2656V19.3389H55.1827C55.8727 19.3389 56.2203 19.1364 56.2203 18.3193C56.2203 18.3193 56.2192 14.5432 56.2192 10.5106Z" fill="black"/>
<path d="M55.9304 6.73791C56.1042 6.59696 56.2059 6.49097 56.2187 6.18787V0.0038147H52.3726C51.5067 0.0038147 51.2661 0.426684 51.2661 1.02866V10.3911L55.9304 6.73791Z" fill="#ED1A3A"/>
<path d="M38.9487 17.8094C41.1001 17.5053 41.8155 16.2271 41.8155 14.3428V1.05262C41.8155 0.257757 42.2458 0.000217438 42.8011 0.000217438H46.7691V12.5665C46.7691 15.6569 46.1184 17.2181 44.2881 18.5354C43.3353 19.219 41.6692 19.999 38.0595 19.999C35.9928 19.999 35.074 19.8824 34.95 19.8538C34.7751 19.8136 34.7041 19.7065 34.7041 19.555V17.9324C35.553 17.9568 37.4967 18.0161 38.9487 17.8094Z" fill="black"/>
<path d="M63.7237 0.000385284C61.3042 0.000385284 61.3031 1.19374 61.3031 2.66795V7.65017C61.3031 7.75297 61.2586 7.7943 61.212 7.83988L57.8237 10.5096H61.3031V19.3368H65.2393C66.0638 19.3527 66.439 19.0528 66.4528 18.3024V10.5117H73.6818C73.8514 10.5117 73.9606 10.4195 73.9606 10.2478V8.29666H66.4528V3.38651C66.4528 2.52276 66.8852 2.11049 67.7415 2.11049L74.1227 2.11261C74.3061 2.11261 74.3707 1.99391 74.3707 1.86143V0.000385284H63.7237Z" fill="black"/>
</g>
<defs>
<clipPath id="clip0_4105_3237">
<rect width="120.18" height="20" fill="white" transform="translate(0.333496)"/>
</clipPath>
</defs>
</svg>
