<svg width="95" height="20" viewBox="0 0 95 20" fill="none" xmlns="http://www.w3.org/2000/svg">
<path d="M25.3899 1.06641H21.4209V19.0061H25.3899V1.06641Z" fill="#C0C0C0"/>
<path fill-rule="evenodd" clip-rule="evenodd" d="M64.977 1.06641L62.2214 11.022H62.1325L59.2881 1.06641H54.1325L51.2881 19.022H55.1992L56.977 6.13307H57.0659L60.5325 19.022H63.8214L67.2881 6.13307L69.1548 19.022H73.1548L70.2214 1.06641H64.977Z" fill="#C0C0C0"/>
<path fill-rule="evenodd" clip-rule="evenodd" d="M89.3319 19.022H93.5097L86.3986 1.06641H80.8875L73.7764 19.022H77.6875L79.1097 15.3775H87.9097L89.3319 19.022ZM83.5541 4.26641L86.5764 11.9997H80.443L83.5541 4.26641Z" fill="#C0C0C0"/>
<path fill-rule="evenodd" clip-rule="evenodd" d="M38.4886 8.35549V11.9999H44.7998V12.2666C44.7998 14.6666 42.6664 16.3555 39.2886 16.3555C35.9109 16.3555 33.2442 14.4888 33.2442 10.1333C33.2442 5.59994 36.0886 3.91105 39.3775 3.91105C41.9553 3.91105 43.822 4.35549 45.9553 5.42216L47.822 2.39994C45.5998 1.0666 42.3109 0.266602 39.2886 0.266602C33.8664 0.266602 28.9775 3.19993 28.9775 10.2222C28.9775 16.3555 33.2442 19.8222 39.1109 19.8222C45.6886 19.8222 48.7998 16.711 48.8886 11.111C48.8886 10.311 48.8886 9.51105 48.7998 8.35549H38.4886Z" fill="#C0C0C0"/>
<path fill-rule="evenodd" clip-rule="evenodd" d="M13.4211 8.53329C10.9322 7.99996 9.24334 8.26662 6.75445 7.73329C5.15445 7.46662 4.71 6.8444 4.71 6.13329C4.71 4.62218 6.66556 3.82218 9.24334 3.82218C11.2878 3.82218 13.3322 4.35551 15.2878 5.2444L17.2433 1.95551C15.11 0.888845 12.1767 0.177734 8.79889 0.177734C5.59889 0.177734 0.621115 1.68885 0.621115 6.39996C0.621115 9.06662 2.39889 10.7555 4.79889 11.2888C7.02112 11.8222 8.44334 11.7333 11.11 12.0888C12.8878 12.3555 13.5989 12.9777 13.5989 13.9555C13.5989 15.3777 11.7322 16.2666 9.06556 16.2666C6.75445 16.2666 4.44334 15.8222 2.13223 14.8444L0.532227 18.2222C3.37667 19.4666 6.31 20 8.79889 20C14.2211 20 17.8656 17.6 17.8656 13.6888C17.8656 11.0222 16.2656 9.15551 13.4211 8.53329Z" fill="#C0C0C0"/>
</svg>
