<svg width="96" height="20" viewBox="0 0 96 20" fill="none" xmlns="http://www.w3.org/2000/svg">
<g clip-path="url(#clip0_4234_2448)">
<path d="M15.9467 18.0529C11.5007 18.0529 7.89758 14.4478 7.89758 10.001C7.89758 5.55392 11.5007 1.95231 15.9467 1.95231C17.5138 1.95231 18.9769 2.39924 20.2128 3.17393L15.9467 10.001L23.9781 5.36363C23.1055 3.97335 21.854 2.77541 20.3407 1.86637C18.4151 0.713485 15.7364 0 12.7744 0C8.54915 0 4.84235 1.53538 2.77517 3.8347C1.24469 5.53444 0.333496 7.6737 0.333496 10.0009C0.333496 12.3297 1.24469 14.4705 2.77517 16.1714C4.84773 18.4736 8.4993 20 12.6548 20C16.8097 20 20.4602 18.4724 22.5341 16.1714C22.6477 16.0447 22.7576 15.9168 22.8616 15.7842L22.5485 14.6104C21.0914 16.6902 18.678 18.0529 15.9467 18.0529Z" fill="#C0C0C0"/>
<path d="M42.5732 19.5163L39.2024 6.9416C38.6609 4.90956 36.8105 3.41602 34.6076 3.41602C34.0362 3.41602 33.4888 3.5181 32.9808 3.70289L25.724 6.34167H33.1875L34.4629 11.1048C33.2258 10.04 31.6145 9.39212 29.8502 9.39212C26.3467 9.39212 23.5103 11.7398 23.5103 14.6359C23.5103 17.5321 26.3467 19.8833 29.8502 19.8833C32.3723 19.8833 34.6028 18.6485 35.9786 16.7516L36.7185 19.5163H42.5732ZM32.2911 17.5632C30.675 17.5632 29.3649 16.2543 29.3649 14.6359C29.3649 13.0198 30.675 11.7097 32.2911 11.7097C33.9071 11.7097 35.2184 13.0198 35.2184 14.6359C35.2184 16.2543 33.9071 17.5632 32.2911 17.5632Z" fill="#C0C0C0"/>
<path d="M56.3165 3.41797C55.8743 3.41797 55.4559 3.51575 55.083 3.69086L50.4236 5.86227C50.1929 4.47523 48.9881 3.41797 47.5346 3.41797C47.0947 3.41797 46.6751 3.51575 46.2974 3.69086L40.6089 6.34147H44.6084V19.5163H50.4631V7.80717C50.4631 6.99926 51.1169 6.34159 51.9273 6.34159C52.733 6.34159 53.3916 6.99926 53.3916 7.80717V19.5163H59.2439V6.34147C59.2439 4.72576 57.9326 3.41797 56.3165 3.41797Z" fill="#C0C0C0"/>
<path d="M93.0318 3.41797C92.5884 3.41797 92.1676 3.51575 91.7887 3.69086L87.1341 5.86227C86.9046 4.47523 85.6998 3.41797 84.2462 3.41797C83.8064 3.41797 83.3868 3.51575 83.0079 3.69086L77.3218 6.34147H81.3201V19.5163H87.1736V7.80717C87.1736 6.99926 87.8286 6.34159 88.639 6.34159C89.4471 6.34159 90.1009 6.99926 90.1009 7.80717V19.5163H95.958V6.34147C95.958 4.72576 94.6455 3.41797 93.0318 3.41797Z" fill="#C0C0C0"/>
<path d="M78.2681 11.7094C78.2681 16.2888 74.5567 20.0002 69.9786 20.0002C65.397 20.0002 61.6831 16.2888 61.6831 11.7094C61.6831 7.13122 65.397 3.41797 69.9786 3.41797C74.5567 3.41797 78.2681 7.13134 78.2681 11.7094ZM70.3217 5.93435C70.0611 4.95873 69.0582 4.3796 68.0828 4.64185C67.1086 4.90303 66.5265 5.9065 66.7883 6.882L69.632 17.4841C69.8949 18.4607 70.8954 19.0392 71.8708 18.781C72.8462 18.5169 73.4259 17.514 73.1641 16.5386L70.3217 5.93435Z" fill="#C0C0C0"/>
</g>
<defs>
<clipPath id="clip0_4234_2448">
<rect width="95.6253" height="20" fill="white" transform="translate(0.333496)"/>
</clipPath>
</defs>
</svg>
