<svg width="115" height="20" viewBox="0 0 115 20" fill="none" xmlns="http://www.w3.org/2000/svg">
<g clip-path="url(#clip0_4234_2413)">
<path d="M87.1001 1.11591V3.33817H89.2707C90.2182 3.33817 90.841 3.9361 91.1957 4.3223C91.4799 4.64039 97.7299 11.7269 97.8796 11.9132C98.0299 12.0997 98.0299 12.1017 98.0299 12.2202V15.7316C98.0295 15.8926 98.0134 16.0532 97.9819 16.2111C97.9375 16.313 97.8714 16.404 97.7882 16.4778C97.7051 16.5517 97.6069 16.6065 97.5004 16.6385C97.2953 16.6643 97.0887 16.6772 96.882 16.6771L94.7094 16.6744V18.897H106.895V16.6744H104.602C104.397 16.6755 104.192 16.6625 103.988 16.6355C103.882 16.6038 103.784 16.5491 103.701 16.4752C103.618 16.4014 103.553 16.3103 103.509 16.2084C103.477 16.0505 103.461 15.8899 103.46 15.7289V12.2195C103.446 12.1042 103.475 11.9879 103.541 11.8924L110.302 4.17903C110.923 3.48782 111.246 3.33784 112.059 3.33784H114.302V1.11523H104.259V3.33314H105.775C105.856 3.32822 105.937 3.34674 106.008 3.38651C106.079 3.42628 106.138 3.48561 106.176 3.55746C106.214 3.62931 106.231 3.71066 106.225 3.79182C106.218 3.87298 106.188 3.95054 106.139 4.01528C106.107 4.06058 101.934 8.96748 101.882 9.01512C101.83 9.06277 101.796 9.05136 101.757 8.99935C101.718 8.94701 97.5957 4.01528 97.5957 4.01528C97.3048 3.65827 97.5319 3.33348 97.8732 3.33348H99.3502V1.11557L87.1001 1.11591Z" fill="#C0C0C0"/>
<path d="M57.2124 1.11621V3.33847H59.1575C60.5621 3.33847 60.6577 4.12061 60.6577 4.80242V15.2047C60.6577 15.8272 60.6939 16.6818 59.7987 16.6818H57.3983V18.902H67.6463V16.6818H65.1465C64.1486 16.6818 64.103 16.2254 64.0919 15.2547V6.34321L78.1667 18.9024H81.7462L81.5573 4.7182C81.5758 3.68172 81.6392 3.33646 82.7119 3.33646H84.955V1.11621H74.5006V3.33646H76.7964C77.851 3.33646 78.0278 3.74313 78.0412 4.7182L78.1667 12.141L65.9485 1.11621H57.2124Z" fill="#C0C0C0"/>
<path d="M11.0651 -0.00195312C8.86298 -0.00195312 6.3609 0.411763 4.24702 1.36167C2.27406 2.24346 0.667495 3.65943 0.667495 6.00685C0.664476 7.23642 1.1321 8.42052 1.97442 9.31625C2.54483 9.84338 3.46521 10.7389 5.87 11.2661C6.94473 11.4935 9.24249 11.8593 11.5312 12.1002C13.8195 12.3411 16.0381 12.5549 16.9468 12.7981C17.6698 12.982 18.8855 13.2323 18.8855 14.5959C18.8855 15.9596 17.6061 16.3682 17.3833 16.4572C17.1608 16.5457 15.6241 17.2504 12.8649 17.2504C11.0369 17.1996 9.22556 16.8881 7.48561 16.3253C6.45618 15.9569 5.37676 15.473 4.36981 14.2433C3.96343 13.6643 3.73796 12.9778 3.7219 12.2707H1.22214V19.2706H3.99938V18.3231C3.99899 18.2528 4.01732 18.1837 4.0525 18.1229C4.08768 18.062 4.13843 18.0117 4.19952 17.977C4.26062 17.9422 4.32988 17.9244 4.40014 17.9253C4.47041 17.9262 4.53916 17.9459 4.59933 17.9822C5.9077 18.5515 7.26863 18.9915 8.66268 19.2958C10.1219 19.6001 11.0651 19.8209 12.8787 19.8209C14.7924 19.8572 16.6997 19.5879 18.5285 19.023C19.7429 18.6901 20.8823 18.1277 21.8852 17.3661C22.4492 16.9329 22.9052 16.3747 23.2171 15.7355C23.529 15.0963 23.6885 14.3935 23.683 13.6823C23.6927 12.3309 23.1713 11.0298 22.2311 10.0591C21.7082 9.55182 21.1025 9.13762 20.44 8.83442C19.7279 8.51271 18.9886 8.25489 18.2309 8.06402C16.7901 7.71171 13.5538 7.27082 12.0063 7.11614C10.3833 6.94837 7.56715 6.71382 6.44242 6.36621C6.10152 6.25917 5.40595 5.93001 5.40595 5.12305C5.40595 4.54827 5.72404 4.06174 6.3515 3.66849C7.34905 3.04372 9.36293 2.65483 11.4627 2.65483C13.4954 2.63019 15.5115 3.02388 17.3856 3.81143C17.8891 4.03088 18.3625 4.31355 18.7945 4.65262C19.4988 5.2542 19.9866 6.07004 20.183 6.97521H22.4264V0.882191H19.9267V1.58883C19.9267 1.81632 19.6992 2.1163 19.2445 1.86867C18.1171 1.28215 14.9493 0.0141527 11.0651 -0.00195312Z" fill="#C0C0C0"/>
<path d="M41.1521 0C37.2136 0 33.0314 1.36362 30.6679 3.51106C29.7668 4.33148 29.0475 5.33148 28.5562 6.4467C28.065 7.56191 27.8127 8.76763 27.8155 9.98625C27.8014 11.2099 28.0485 12.4224 28.5403 13.5429C29.0322 14.6634 29.7574 15.6661 30.6676 16.4839C33.2133 18.7723 37.0317 19.9997 41.1521 19.9997C45.2792 19.9997 49.1792 18.7861 51.6635 16.4839C52.5467 15.6469 53.2513 14.6396 53.7348 13.5229C54.2183 12.4062 54.4706 11.2031 54.4766 9.98625C54.4888 8.77064 54.2446 7.56611 53.7599 6.45125C53.2752 5.33639 52.5608 4.33625 51.6635 3.51609C48.9973 1.09788 45.5087 0 41.1521 0ZM41.1521 2.59975C43.3066 2.59975 45.3816 3.37484 46.7791 4.7502C48.1313 6.08195 48.8379 7.96364 48.8379 9.9772C48.8379 12.0864 48.195 13.7956 46.7794 15.2045C45.3634 16.6138 43.3361 17.3681 41.1521 17.3681C38.9839 17.3681 36.9133 16.5977 35.5158 15.2045C34.8473 14.5109 34.3224 13.6921 33.9714 12.795C33.6204 11.8979 33.4501 10.9403 33.4703 9.9772C33.4703 7.9727 34.1679 6.0843 35.5158 4.7502C36.9133 3.36813 38.9976 2.59975 41.1521 2.59975Z" fill="#C0C0C0"/>
</g>
<defs>
<clipPath id="clip0_4234_2413">
<rect width="113.636" height="20" fill="white" transform="translate(0.666504)"/>
</clipPath>
</defs>
</svg>
