<svg width="121" height="20" viewBox="0 0 121 20" fill="none" xmlns="http://www.w3.org/2000/svg">
<g clip-path="url(#clip0_4234_2427)">
<path d="M91.8792 0.00244713V15.656C91.8792 16.6734 92.3816 17.1959 93.4054 17.2478C93.4181 17.2489 98.5635 17.2489 98.5635 17.2489V19.005C98.5635 19.2011 98.4575 19.3389 98.2392 19.3389H89.8889C87.3093 19.3389 86.9277 17.9187 86.9277 16.6289V1.06651C86.9277 0.33205 87.2075 -0.0155697 88.0755 0.00350571L91.8792 0.00244713Z" fill="#C0C0C0"/>
<path d="M82.2555 0.00244713L82.2566 18.3193C82.2566 19.1343 81.9111 19.3389 81.218 19.3389H77.2998V1.01352C77.2998 0.409418 77.5308 0.00350571 78.4094 0.00350571L82.2555 0.00244713Z" fill="#C0C0C0"/>
<path d="M0.333008 2.66746C0.333008 1.19325 0.336187 -0.000110626 2.75788 -0.000110626H13.4027V1.86093C13.4027 1.99341 13.3402 2.11317 13.1547 2.11317L6.77565 2.11105C5.91826 2.11105 5.48691 2.52226 5.48691 3.38707V8.29722H12.9926L12.9936 10.2473C12.9936 10.42 12.8855 10.5112 12.7159 10.5112H5.48691V18.3019C5.47102 19.0533 5.09584 19.3522 4.2713 19.3374H0.333008V2.66746Z" fill="#C0C0C0"/>
<path d="M21.0901 0.000530243V14.7394C21.0901 16.0049 21.2692 16.8919 22.1573 17.4049C23.3475 18.0938 25.3633 18.1044 26.5768 17.424C27.4066 16.9608 27.7235 16.2168 27.7235 14.7437V0.982983C27.7235 0.364048 27.9598 0.000530243 28.8246 0.000530243H32.6771L32.6781 14.3039C32.6781 17.6264 30.5861 18.9893 28.7367 19.4949C26.2758 20.1657 22.5378 20.1763 20.2157 19.479C17.4411 18.6438 16.1449 17.0011 16.1418 14.3049L16.1396 0.993582C16.1396 0.35133 16.3707 0.000530243 17.1094 0.000530243H21.0901Z" fill="#C0C0C0"/>
<path d="M114.785 0.00350761C113.807 0.00350761 113.25 0.459232 113.029 1.33146L109.874 14.6651L109.789 14.6629L106.53 0.00350761H102.074C101.215 0.00350761 100.944 0.445454 100.944 1.12798V19.3389H102.827C103.13 19.3389 103.255 19.1884 103.255 18.88V3.61114H103.553L107.581 19.3389H110.219C111.213 19.3389 111.583 18.9308 111.828 17.9484L115.444 3.61114H115.736L115.735 19.3389L119.255 19.3336C120.119 19.3336 120.513 19.0018 120.513 18.1529V0.00244904L114.785 0.00350761Z" fill="#C0C0C0"/>
<path d="M56.2192 10.5106H51.2656V19.3389H55.1827C55.8727 19.3389 56.2203 19.1364 56.2203 18.3193C56.2203 18.3193 56.2192 14.5432 56.2192 10.5106Z" fill="#C0C0C0"/>
<path d="M55.9299 6.7384C56.1037 6.59745 56.2054 6.49146 56.2182 6.18835V0.00430298H52.3721C51.5062 0.00430298 51.2656 0.427173 51.2656 1.02915V10.3916L55.9299 6.7384Z" fill="#C0C0C0"/>
<path d="M38.9477 17.8094C41.0991 17.5053 41.8145 16.2271 41.8145 14.3428V1.05262C41.8145 0.257757 42.2448 0.000217438 42.8002 0.000217438H46.7681V12.5665C46.7681 15.6569 46.1174 17.2181 44.2871 18.5354C43.3343 19.219 41.6683 19.999 38.0585 19.999C35.9919 19.999 35.073 19.8824 34.949 19.8538C34.7741 19.8136 34.7031 19.7065 34.7031 19.555V17.9324C35.552 17.9568 37.4958 18.0161 38.9477 17.8094Z" fill="#C0C0C0"/>
<path d="M63.7233 0.000873566C61.3037 0.000873566 61.3026 1.19423 61.3026 2.66844V7.65066C61.3026 7.75346 61.2581 7.79479 61.2115 7.84036L57.8232 10.5101H61.3026V19.3373H65.2388C66.0633 19.3532 66.4385 19.0533 66.4523 18.3029V10.5122H73.6813C73.8509 10.5122 73.9601 10.42 73.9601 10.2483V8.29715H66.4523V3.387C66.4523 2.52325 66.8847 2.11098 67.741 2.11098L74.1222 2.1131C74.3056 2.1131 74.3702 1.9944 74.3702 1.86192V0.000873566H63.7233Z" fill="#C0C0C0"/>
</g>
<defs>
<clipPath id="clip0_4234_2427">
<rect width="120.18" height="20" fill="white" transform="translate(0.333008)"/>
</clipPath>
</defs>
</svg>
