<svg width="1440" height="313" viewBox="0 0 1440 313" fill="none" xmlns="http://www.w3.org/2000/svg">
<g clip-path="url(#clip0_41_312)">
<rect width="1440" height="313" fill="url(#paint0_linear_41_312)"/>
<g opacity="0.4" clip-path="url(#clip1_41_312)">
<path d="M263.345 524.428C294.731 509.658 334.761 477.875 371.115 438.29C471.22 329.279 560.271 211.91 623.385 103.949L641.644 72.7216L642.123 90.8375C644.586 184.262 723.444 204.791 853.087 145.734L1013.76 72.5862L1077.88 14.9977C1111.07 -14.815 1124.5 -52.0959 1097.65 -39.8662L912.193 44.6168C808.036 92.0649 744.665 75.5806 742.703 0.512713L739.485 -121.924C738.879 -144.877 688.53 -109.613 665.408 -70.0546L542.017 141.025C465.961 271.134 345.036 416.124 215.632 532.345L215.44 532.516C204.819 542.05 200.621 553.945 209.315 549.844L263.37 524.411L263.345 524.428Z" fill="#3B43A8"/>
<path d="M866.236 228.452C833.512 243.848 791.781 277.518 753.972 318.881C655.36 426.755 567.701 542.582 505.357 649.235L487.097 680.463L486.625 662.37C484.169 568.418 406.01 548.077 275.665 607.453L114.89 680.69L50.8728 738.189C17.6855 768.001 4.25039 805.282 31.1059 793.053L216.559 708.57C321.278 660.865 384.071 677.204 386.059 752.676L389.268 875.1C389.874 898.053 440.223 862.789 463.345 823.231L586.736 612.151C662.792 482.042 783.704 337.071 913.107 220.85C923.729 211.316 927.927 199.421 919.233 203.522L866.246 228.454L866.236 228.452Z" fill="#3B43A8"/>
</g>
</g>
<defs>
<linearGradient id="paint0_linear_41_312" x1="-26.5" y1="35.6582" x2="1439.01" y2="318.151" gradientUnits="userSpaceOnUse">
<stop stop-color="#222D80"/>
<stop offset="1" stop-color="#21285F"/>
</linearGradient>
<clipPath id="clip0_41_312">
<rect width="1440" height="313" fill="white"/>
</clipPath>
<clipPath id="clip1_41_312">
<rect width="1145.65" height="1145.65" fill="white" transform="translate(131.94 -287) rotate(10)"/>
</clipPath>
</defs>
</svg>
