<svg width="18" height="18" viewBox="0 0 18 18" fill="none" xmlns="http://www.w3.org/2000/svg">
<path d="M1.00098 0H17.001C17.5533 0 18.001 0.44772 18.001 1V17C18.001 17.5523 17.5533 18 17.001 18H1.00098C0.448687 18 0.000976562 17.5523 0.000976562 17V1C0.000976562 0.44772 0.448687 0 1.00098 0ZM2.00098 2V16H16.001V2H2.00098ZM4.50098 6C3.67255 6 3.00098 5.32843 3.00098 4.5C3.00098 3.67157 3.67255 3 4.50098 3C5.3294 3 6.00098 3.67157 6.00098 4.5C6.00098 5.32843 5.3294 6 4.50098 6ZM3.50098 7H5.50098V14.5H3.50098V7ZM9.001 7.4295C9.5854 6.86534 10.2665 6.5 11.001 6.5C13.072 6.5 14.501 8.1789 14.501 10.25V14.5H12.501V10.25C12.501 9.2835 11.7175 8.5 10.751 8.5C9.7845 8.5 9.001 9.2835 9.001 10.25V14.5H7.001V7H9.001V7.4295Z" fill="#293591"/>
</svg>
