<svg width="76" height="20" viewBox="0 0 76 20" fill="none" xmlns="http://www.w3.org/2000/svg">
<g clip-path="url(#clip0_4105_3204)">
<path d="M8.36285 0H0V20L8.36285 0Z" fill="#FA0C00"/>
<path d="M14.2466 0H22.5985V20L14.2466 0Z" fill="#FA0C00"/>
<path d="M11.3046 7.37109L16.6274 19.9998H13.1352L11.5443 15.9791H7.64893L11.3046 7.37109Z" fill="#FA0C00"/>
<path d="M36.242 12.7185L37.2281 15.5461C37.2608 15.6169 37.3099 15.6496 37.397 15.6496H39.293C39.3965 15.6496 39.4128 15.6006 39.3965 15.4971L35.4793 4.61719C35.463 4.53002 35.4466 4.51367 35.3594 4.51367H33.0059C32.9405 4.51367 32.9023 4.5627 32.9023 4.63353C32.8697 5.20558 32.8206 5.37992 32.7498 5.54881L29.2576 15.4807C29.2412 15.6006 29.2794 15.6496 29.3774 15.6496H31.0718C31.1753 15.6496 31.2243 15.6169 31.2625 15.5134L32.1941 12.7185H36.242ZM32.7335 10.8716C33.2456 9.32435 33.9212 7.34124 34.1936 6.20803H34.2099C34.5477 7.39572 35.3431 9.7493 35.7027 10.8716H32.7335Z" fill="#FA0C00"/>
<path d="M44.4324 15.8185C45.4512 15.8185 46.5354 15.6332 47.6359 15.1593C47.7231 15.1266 47.7394 15.0884 47.7394 15.0067C47.7067 14.7016 47.6686 14.2603 47.6686 13.9225V3.6801C47.6686 3.61472 47.6686 3.58203 47.5869 3.58203H45.74C45.6691 3.58203 45.6364 3.61472 45.6364 3.70189V7.17233C45.3477 7.13965 45.1461 7.1233 44.9064 7.1233C41.9263 7.1233 40.0957 9.09007 40.0957 11.5472C40.0957 14.3965 41.9753 15.8185 44.4324 15.8185ZM45.6364 13.9225C45.3313 14.0206 44.9936 14.0587 44.6503 14.0587C43.2992 14.0587 42.1932 13.296 42.1932 11.4437C42.1932 9.80377 43.3319 8.83401 44.841 8.83401C45.1461 8.83401 45.4131 8.8667 45.6364 8.95387V13.9225Z" fill="#FA0C00"/>
<path d="M53.6315 7.12354C51.0872 7.12354 49.5127 9.07396 49.5127 11.482C49.5127 13.634 50.7658 15.8187 53.5933 15.8187C55.985 15.8187 57.6631 14.059 57.6631 11.4275C57.6631 9.10665 56.2411 7.12354 53.6315 7.12354ZM53.528 8.83424C54.9663 8.83424 55.5764 10.071 55.5764 11.482C55.5764 13.2254 54.6775 14.0917 53.6315 14.0917C52.3403 14.0917 51.5775 13.0075 51.5775 11.4439C51.5775 9.83669 52.3893 8.83424 53.528 8.83424Z" fill="#FA0C00"/>
<path d="M59.5725 3.58203C59.5017 3.58203 59.4526 3.61472 59.4526 3.70189V15.2955C59.4526 15.3445 59.5017 15.4317 59.5725 15.448C60.3843 15.6986 61.2342 15.8185 62.1113 15.8185C64.6229 15.8185 67.0636 14.2603 67.0636 11.1222C67.0636 8.85035 65.5055 7.1233 63.0647 7.1233C62.5036 7.1233 61.9806 7.21047 61.5229 7.36302L61.5011 3.71823C61.5011 3.59838 61.4684 3.58203 61.3486 3.58203H59.5725ZM64.977 11.3292C64.977 13.2088 63.6913 14.0914 62.302 14.0914C62.0132 14.0914 61.7572 14.0751 61.5229 14.0043V9.05738C61.7899 8.95387 62.1113 8.8667 62.7052 8.8667C64.0454 8.8667 64.977 9.7166 64.977 11.3292Z" fill="#FA0C00"/>
<path d="M73.9563 11.9397C74.7844 11.9397 75.4654 11.9233 75.6997 11.8688C75.7868 11.8525 75.8195 11.8198 75.8359 11.749C75.8849 11.5637 75.9067 11.1769 75.9067 10.7029C75.9067 9.0903 74.9369 7.12354 72.4308 7.12354C69.8702 7.12354 68.4482 9.21016 68.4482 11.5637C68.4482 13.6504 69.5488 15.8187 72.6324 15.8187C73.7874 15.8187 74.5338 15.6335 75.1767 15.3284C75.242 15.2957 75.2747 15.2412 75.2747 15.1431V13.7321C75.2747 13.6504 75.2257 13.634 75.1767 13.6667C74.5338 13.9391 73.8364 14.0753 73.0737 14.0753C71.3466 14.0753 70.5621 13.1219 70.5131 11.9397H73.9563ZM70.5131 10.4796C70.6493 9.65146 71.1723 8.75252 72.3436 8.75252C73.6348 8.75252 73.9726 9.83669 73.9726 10.327C73.9726 10.3434 73.9726 10.4142 73.9726 10.4632C73.9018 10.4796 73.6839 10.4796 73.041 10.4796H70.5131Z" fill="#FA0C00"/>
</g>
<defs>
<clipPath id="clip0_4105_3204">
<rect width="75.9066" height="20" fill="white"/>
</clipPath>
</defs>
</svg>
