<svg width="95" height="20" viewBox="0 0 95 20" fill="none" xmlns="http://www.w3.org/2000/svg">
<g clip-path="url(#clip0_4105_3222)">
<path d="M26.0574 1.06641H22.0884V19.0061H26.0574V1.06641Z" fill="#010101"/>
<path fill-rule="evenodd" clip-rule="evenodd" d="M65.644 1.06641L62.8884 11.022H62.7995L59.9551 1.06641H54.7995L51.9551 19.022H55.8662L57.644 6.13307H57.7329L61.1995 19.022H64.4884L67.9551 6.13307L69.8217 19.022H73.8217L70.8884 1.06641H65.644Z" fill="#010101"/>
<path fill-rule="evenodd" clip-rule="evenodd" d="M89.9999 19.022H94.1777L87.0666 1.06641H81.5554L74.4443 19.022H78.3554L79.7777 15.3775H88.5777L89.9999 19.022ZM84.2221 4.26641L87.2443 11.9997H81.111L84.2221 4.26641Z" fill="#010101"/>
<path fill-rule="evenodd" clip-rule="evenodd" d="M39.1552 8.35549V11.9999H45.4663V12.2666C45.4663 14.6666 43.3329 16.3555 39.9552 16.3555C36.5774 16.3555 33.9107 14.4888 33.9107 10.1333C33.9107 5.59994 36.7552 3.91105 40.044 3.91105C42.6218 3.91105 44.4885 4.35549 46.6218 5.42216L48.4885 2.39994C46.2663 1.0666 42.9774 0.266602 39.9552 0.266602C34.5329 0.266602 29.644 3.19993 29.644 10.2222C29.644 16.3555 33.9107 19.8222 39.7774 19.8222C46.3552 19.8222 49.4663 16.711 49.5552 11.111C49.5552 10.311 49.5552 9.51105 49.4663 8.35549H39.1552Z" fill="#010101"/>
<path fill-rule="evenodd" clip-rule="evenodd" d="M14.0886 8.53329C11.5997 7.99996 9.91082 8.26662 7.42193 7.73329C5.82193 7.46662 5.37748 6.8444 5.37748 6.13329C5.37748 4.62218 7.33304 3.82218 9.91082 3.82218C11.9553 3.82218 13.9997 4.35551 15.9553 5.2444L17.9108 1.95551C15.7775 0.888845 12.8442 0.177734 9.46637 0.177734C6.26637 0.177734 1.2886 1.68885 1.2886 6.39996C1.2886 9.06662 3.06637 10.7555 5.46637 11.2888C7.6886 11.8222 9.11082 11.7333 11.7775 12.0888C13.5553 12.3555 14.2664 12.9777 14.2664 13.9555C14.2664 15.3777 12.3997 16.2666 9.73304 16.2666C7.42193 16.2666 5.11082 15.8222 2.79971 14.8444L1.19971 18.2222C4.04415 19.4666 6.97748 20 9.46637 20C14.8886 20 18.533 17.6 18.533 13.6888C18.533 11.0222 16.933 9.15551 14.0886 8.53329Z" fill="#010101"/>
</g>
<defs>
<clipPath id="clip0_4105_3222">
<rect width="94.0444" height="20" fill="white" transform="translate(0.666504)"/>
</clipPath>
</defs>
</svg>
